<svg width="1544" height="500" viewBox="0 0 1544 500" xmlns="http://www.w3.org/2000/svg">
  <defs>
    <linearGradient id="bannerGradient2x" x1="0%" y1="0%" x2="100%" y2="0%">
      <stop offset="0%" style="stop-color:#2271B1;stop-opacity:1" />
      <stop offset="50%" style="stop-color:#0073AA;stop-opacity:1" />
      <stop offset="100%" style="stop-color:#1E3A8A;stop-opacity:1" />
    </linearGradient>
  </defs>

  <!-- Background -->
  <rect width="1544" height="500" fill="url(#bannerGradient2x)"/>

  <!-- Decorative pattern background (subtle) -->
  <g opacity="0.08">
    <circle cx="1400" cy="100" r="160" fill="white"/>
    <circle cx="1360" cy="400" r="120" fill="white"/>
    <rect x="1300" y="40" width="80" height="80" rx="8" fill="white"/>
    <rect x="1440" y="360" width="60" height="60" rx="8" fill="white"/>
  </g>

  <!-- Left side: Text content (2x scale) -->
  <g>
    <!-- Main title -->
    <text x="80" y="200" font-family="Inter, -apple-system, BlinkMacSystemFont, sans-serif" font-size="84" font-weight="800" fill="white" letter-spacing="-1">
      Post Formats for Block Themes
    </text>

    <!-- Tagline -->
    <text x="80" y="280" font-family="Inter, -apple-system, BlinkMacSystemFont, sans-serif" font-size="36" font-weight="400" fill="white" opacity="0.9">
      Bring WordPress Post Formats to Block Themes
    </text>

    <!-- Feature highlight -->
    <g transform="translate(80, 330)">
      <rect width="8" height="40" fill="#10B981" rx="4"/>
      <text x="28" y="32" font-family="Inter, -apple-system, BlinkMacSystemFont, sans-serif" font-size="28" font-weight="500" fill="white" opacity="0.85">
        10 Classic Formats • Auto-Detection • Block Patterns • Chat Log Block
      </text>
    </g>
  </g>

  <!-- Right side: Format icons grid (2x scale) -->
  <g transform="translate(1080, 120)">
    <!-- Background card -->
    <rect width="400" height="260" rx="16" fill="white" opacity="0.12"/>

    <!-- Format icons in 5x2 grid (2x scale) -->
    <!-- Row 1 -->
    <g transform="translate(40, 40) scale(0.9)" fill="white" opacity="0.9">
      <path d="M8.54 7.43c.82-1.06.62-2.11.05-3.18-.38-.71-1.06-1.2-1.85-1.25-.9-.07-1.68.44-2.07 1.3-.48 1.07-.35 2.15.32 3.12.72 1.04 1.86 1.49 3.04 1.17.31-.08.62-.25.82-.46.06-.07.12-.16.15-.26z"/>
      <title>Quote</title>
    </g>
    <g transform="translate(120, 40) scale(0.9)" fill="white" opacity="0.9">
      <path d="M4 4h5v5H4V4zm6 0h5v5h-5V4zm6 0h5v5h-5V4zM4 10h5v5H4v-5z"/>
      <title>Gallery</title>
    </g>
    <g transform="translate(200, 40) scale(0.9)" fill="white" opacity="0.9">
      <path d="M16 7l-6-4v14l6-4v-6zm-1 4.5l-3 2v-7l3 2v3z"/>
      <title>Video</title>
    </g>
    <g transform="translate(280, 40) scale(0.9)" fill="white" opacity="0.9">
      <path d="M9 3L4 8H2v8h2l5 5v-18z"/>
      <title>Audio</title>
    </g>
    <g transform="translate(360, 40) scale(0.9)" fill="white" opacity="0.9">
      <path d="M2.5 1h15c.83 0 1.5.67 1.5 1.5v15c0 .83-.67 1.5-1.5 1.5h-15c-.83 0-1.5-.67-1.5-1.5v-15C1 1.67 1.67 1 2.5 1z"/>
      <title>Image</title>
    </g>

    <!-- Row 2 -->
    <g transform="translate(40, 150) scale(0.9)" fill="white" opacity="0.9">
      <path d="M11 5h6v1h-6V5zm-7 3h13v1H4V8zm0 3h13v1H4v-1z"/>
      <title>Chat</title>
    </g>
    <g transform="translate(120, 150) scale(0.9)" fill="white" opacity="0.9">
      <path d="M17.74 2.26c1.68 1.69 1.68 4.41 0 6.1l-1.53 1.52c-.32.32-.83.1-.83-.35v-2.31c-.63-.13-1.26-.37-1.85-.74z"/>
      <title>Link</title>
    </g>
    <g transform="translate(200, 150) scale(0.9)" fill="white" opacity="0.9">
      <path d="M10 1l2.5 6.5 6.5.5-5 4.5 1.5 6.5-5.5-3.5-5.5 3.5 1.5-6.5-5-4.5 6.5-.5z"/>
      <title>Status</title>
    </g>
    <g transform="translate(280, 150) scale(0.9)" fill="white" opacity="0.9">
      <path d="M14.5 12.5l.71-.71c.78-.78.78-2.04 0-2.82l-7.5-7.5C7.52 1.29 7.27 1.2 7 1.2s-.52.09-.71.28l-4.8 4.8c-.39.39-.39 1.02 0 1.41l7.5 7.5z"/>
      <title>Aside</title>
    </g>
    <g transform="translate(360, 150) scale(0.9)" fill="white" opacity="0.9">
      <path d="M9 1H3c-1.1 0-2 .9-2 2v14c0 1.1.9 2 2 2h14c1.1 0 2-.9 2-2V9l-8-8z"/>
      <title>Standard</title>
    </g>

    <!-- Label -->
    <text x="200" y="250" font-family="Inter, -apple-system, BlinkMacSystemFont, sans-serif" font-size="22" font-weight="600" fill="white" opacity="0.7" text-anchor="middle">
      10 POST FORMATS
    </text>
  </g>

  <!-- WordPress.org badge (bottom right, 2x scale) -->
  <g transform="translate(1330, 430)">
    <text font-family="Inter, -apple-system, BlinkMacSystemFont, sans-serif" font-size="20" font-weight="600" fill="white" opacity="0.6">
      WordPress 6.8+
    </text>
  </g>
</svg>
