<svg width="772" height="250" viewBox="0 0 772 250" xmlns="http://www.w3.org/2000/svg">
  <defs>
    <linearGradient id="bannerGradient" x1="0%" y1="0%" x2="100%" y2="0%">
      <stop offset="0%" style="stop-color:#2271B1;stop-opacity:1" />
      <stop offset="50%" style="stop-color:#0073AA;stop-opacity:1" />
      <stop offset="100%" style="stop-color:#1E3A8A;stop-opacity:1" />
    </linearGradient>
  </defs>

  <!-- Background -->
  <rect width="772" height="250" fill="url(#bannerGradient)"/>

  <!-- Decorative pattern background (subtle) -->
  <g opacity="0.08">
    <circle cx="700" cy="50" r="80" fill="white"/>
    <circle cx="680" cy="200" r="60" fill="white"/>
    <rect x="650" y="20" width="40" height="40" rx="4" fill="white"/>
    <rect x="720" y="180" width="30" height="30" rx="4" fill="white"/>
  </g>

  <!-- Left side: Text content -->
  <g>
    <!-- Main title -->
    <text x="40" y="100" font-family="Inter, -apple-system, BlinkMacSystemFont, sans-serif" font-size="42" font-weight="800" fill="white" letter-spacing="-0.5">
      Post Formats for Block Themes
    </text>

    <!-- Tagline -->
    <text x="40" y="140" font-family="Inter, -apple-system, BlinkMacSystemFont, sans-serif" font-size="18" font-weight="400" fill="white" opacity="0.9">
      Bring WordPress Post Formats to Block Themes
    </text>

    <!-- Feature highlight -->
    <g transform="translate(40, 165)">
      <rect width="4" height="20" fill="#10B981" rx="2"/>
      <text x="14" y="16" font-family="Inter, -apple-system, BlinkMacSystemFont, sans-serif" font-size="14" font-weight="500" fill="white" opacity="0.85">
        10 Classic Formats • Auto-Detection • Block Patterns • Chat Log Block
      </text>
    </g>
  </g>

  <!-- Right side: Format icons grid -->
  <g transform="translate(540, 60)">
    <!-- Background card -->
    <rect width="200" height="130" rx="8" fill="white" opacity="0.12"/>

    <!-- Format icons in 5x2 grid (smaller, cleaner) -->
    <!-- Row 1 -->
    <g transform="translate(20, 20) scale(0.45)" fill="white" opacity="0.9">
      <path d="M8.54 7.43c.82-1.06.62-2.11.05-3.18-.38-.71-1.06-1.2-1.85-1.25-.9-.07-1.68.44-2.07 1.3-.48 1.07-.35 2.15.32 3.12.72 1.04 1.86 1.49 3.04 1.17.31-.08.62-.25.82-.46.06-.07.12-.16.15-.26z"/>
      <title>Quote</title>
    </g>
    <g transform="translate(60, 20) scale(0.45)" fill="white" opacity="0.9">
      <path d="M4 4h5v5H4V4zm6 0h5v5h-5V4zm6 0h5v5h-5V4zM4 10h5v5H4v-5z"/>
      <title>Gallery</title>
    </g>
    <g transform="translate(100, 20) scale(0.45)" fill="white" opacity="0.9">
      <path d="M16 7l-6-4v14l6-4v-6zm-1 4.5l-3 2v-7l3 2v3z"/>
      <title>Video</title>
    </g>
    <g transform="translate(140, 20) scale(0.45)" fill="white" opacity="0.9">
      <path d="M9 3L4 8H2v8h2l5 5v-18z"/>
      <title>Audio</title>
    </g>
    <g transform="translate(180, 20) scale(0.45)" fill="white" opacity="0.9">
      <path d="M2.5 1h15c.83 0 1.5.67 1.5 1.5v15c0 .83-.67 1.5-1.5 1.5h-15c-.83 0-1.5-.67-1.5-1.5v-15C1 1.67 1.67 1 2.5 1z"/>
      <title>Image</title>
    </g>

    <!-- Row 2 -->
    <g transform="translate(20, 75) scale(0.45)" fill="white" opacity="0.9">
      <path d="M11 5h6v1h-6V5zm-7 3h13v1H4V8zm0 3h13v1H4v-1z"/>
      <title>Chat</title>
    </g>
    <g transform="translate(60, 75) scale(0.45)" fill="white" opacity="0.9">
      <path d="M17.74 2.26c1.68 1.69 1.68 4.41 0 6.1l-1.53 1.52c-.32.32-.83.1-.83-.35v-2.31c-.63-.13-1.26-.37-1.85-.74z"/>
      <title>Link</title>
    </g>
    <g transform="translate(100, 75) scale(0.45)" fill="white" opacity="0.9">
      <path d="M10 1l2.5 6.5 6.5.5-5 4.5 1.5 6.5-5.5-3.5-5.5 3.5 1.5-6.5-5-4.5 6.5-.5z"/>
      <title>Status</title>
    </g>
    <g transform="translate(140, 75) scale(0.45)" fill="white" opacity="0.9">
      <path d="M14.5 12.5l.71-.71c.78-.78.78-2.04 0-2.82l-7.5-7.5C7.52 1.29 7.27 1.2 7 1.2s-.52.09-.71.28l-4.8 4.8c-.39.39-.39 1.02 0 1.41l7.5 7.5z"/>
      <title>Aside</title>
    </g>
    <g transform="translate(180, 75) scale(0.45)" fill="white" opacity="0.9">
      <path d="M9 1H3c-1.1 0-2 .9-2 2v14c0 1.1.9 2 2 2h14c1.1 0 2-.9 2-2V9l-8-8z"/>
      <title>Standard</title>
    </g>

    <!-- Label -->
    <text x="100" y="125" font-family="Inter, -apple-system, BlinkMacSystemFont, sans-serif" font-size="11" font-weight="600" fill="white" opacity="0.7" text-anchor="middle">
      10 POST FORMATS
    </text>
  </g>

  <!-- WordPress.org badge (bottom right) -->
  <g transform="translate(665, 215)">
    <text font-family="Inter, -apple-system, BlinkMacSystemFont, sans-serif" font-size="10" font-weight="600" fill="white" opacity="0.6">
      WordPress 6.8+
    </text>
  </g>
</svg>
