<svg width="256" height="256" viewBox="0 0 256 256" xmlns="http://www.w3.org/2000/svg">
  <!-- Background circle with WordPress blue gradient -->
  <defs>
    <linearGradient id="bgGradient" x1="0%" y1="0%" x2="100%" y2="100%">
      <stop offset="0%" style="stop-color:#2271B1;stop-opacity:1" />
      <stop offset="100%" style="stop-color:#0073AA;stop-opacity:1" />
    </linearGradient>

    <!-- Dashicon paths from WordPress official set -->
    <!-- These are the official SVG paths from dashicons -->
  </defs>

  <!-- Background -->
  <rect width="256" height="256" rx="32" fill="url(#bgGradient)"/>

  <!-- 3x3 Grid of format icons (white, smaller) -->
  <!-- Row 1 -->
  <!-- format-quote (top-left) -->
  <g transform="translate(48, 48) scale(0.6)" fill="white" opacity="0.9">
    <path d="M8.54 7.43c.82-1.06.62-2.11.05-3.18-.38-.71-1.06-1.2-1.85-1.25-.9-.07-1.68.44-2.07 1.3-.48 1.07-.35 2.15.32 3.12.72 1.04 1.86 1.49 3.04 1.17.31-.08.62-.25.82-.46.06-.07.12-.16.15-.26zM18.46 17.43c-.82-1.06-.62-2.11-.05-3.18.38-.71 1.06-1.2 1.85-1.25.9-.07 1.68.44 2.07 1.3.48 1.07.35 2.15-.32 3.12-.72 1.04-1.86 1.49-3.04 1.17-.31-.08-.62-.25-.82-.46-.06-.07-.12-.16-.15-.26z"/>
  </g>

  <!-- format-gallery (top-center) -->
  <g transform="translate(104, 48) scale(0.6)" fill="white" opacity="0.9">
    <path d="M4 4h5v5H4V4zm6 0h5v5h-5V4zm6 0h5v5h-5V4zM4 10h5v5H4v-5zm6 0h5v5h-5v-5zm6 0h5v5h-5v-5zM4 16h5v5H4v-5zm6 0h5v5h-5v-5zm6 0h5v5h-5v-5z"/>
  </g>

  <!-- format-video (top-right) -->
  <g transform="translate(160, 48) scale(0.6)" fill="white" opacity="0.9">
    <path d="M16 7l-6-4v14l6-4v-6zm-1 4.5l-3 2v-7l3 2v3z"/>
  </g>

  <!-- Row 2 -->
  <!-- format-audio (middle-left) -->
  <g transform="translate(48, 104) scale(0.6)" fill="white" opacity="0.9">
    <path d="M9 3L4 8H2v8h2l5 5v-18zM16 10c0-1.66-1.34-3-3-3v2c.55 0 1 .45 1 1s-.45 1-1 1v2c1.66 0 3-1.34 3-3z"/>
  </g>

  <!-- format-image (middle-center) -->
  <g transform="translate(104, 104) scale(0.6)" fill="white" opacity="0.9">
    <path d="M2.5 1h15c.83 0 1.5.67 1.5 1.5v15c0 .83-.67 1.5-1.5 1.5h-15c-.83 0-1.5-.67-1.5-1.5v-15C1 1.67 1.67 1 2.5 1zM14 11.5l-3 3.5-2-2-3 3.5h11l-3-5z"/>
  </g>

  <!-- format-chat (middle-right) -->
  <g transform="translate(160, 104) scale(0.6)" fill="white" opacity="0.9">
    <path d="M11 5h6v1h-6V5zm-7 3h13v1H4V8zm0 3h13v1H4v-1zM2 2h16c.55 0 1 .45 1 1v14c0 .55-.45 1-1 1H2c-.55 0-1-.45-1-1V3c0-.55.45-1 1-1z"/>
  </g>

  <!-- Row 3 -->
  <!-- admin-links (bottom-left) -->
  <g transform="translate(48, 160) scale(0.6)" fill="white" opacity="0.9">
    <path d="M17.74 2.26c1.68 1.69 1.68 4.41 0 6.1l-1.53 1.52c-.32.32-.83.1-.83-.35v-2.31c-.63-.13-1.26-.37-1.85-.74-.59-.37-1.09-.86-1.48-1.46l-.01-.01c-.36-.56-.59-1.17-.72-1.8l-.04-.2c-.04-.21.05-.44.23-.62l2.22-2.22c1.68-1.68 4.41-1.68 6.1 0zM2.26 17.74c-1.68-1.69-1.68-4.41 0-6.1l1.53-1.52c.32-.32.83-.1.83.35v2.31c.63.13 1.26.37 1.85.74.59.37 1.09.86 1.48 1.46l.01.01c.36.56.59 1.17.72 1.8l.04.2c.04.21-.05.44-.23.62l-2.22 2.22c-1.68 1.68-4.41 1.68-6.1 0z"/>
  </g>

  <!-- format-status (bottom-center) -->
  <g transform="translate(104, 160) scale(0.6)" fill="white" opacity="0.9">
    <path d="M10 1l2.5 6.5 6.5.5-5 4.5 1.5 6.5-5.5-3.5-5.5 3.5 1.5-6.5-5-4.5 6.5-.5z"/>
  </g>

  <!-- format-aside (bottom-right) -->
  <g transform="translate(160, 160) scale(0.6)" fill="white" opacity="0.9">
    <path d="M14.5 12.5l.71-.71c.78-.78.78-2.04 0-2.82l-7.5-7.5C7.52 1.29 7.27 1.2 7 1.2s-.52.09-.71.28l-4.8 4.8c-.39.39-.39 1.02 0 1.41l7.5 7.5c.78.78 2.04.78 2.82 0l.71-.71 2.47 2.47c.39.39 1.02.39 1.41 0 .39-.39.39-1.02 0-1.41l-2.47-2.47z"/>
  </g>

  <!-- Center text overlay -->
  <text x="128" y="128" font-family="Inter, -apple-system, BlinkMacSystemFont, sans-serif" font-size="20" font-weight="700" fill="white" text-anchor="middle" dominant-baseline="middle" opacity="0.95">
    POST
  </text>
  <text x="128" y="148" font-family="Inter, -apple-system, BlinkMacSystemFont, sans-serif" font-size="16" font-weight="600" fill="white" text-anchor="middle" dominant-baseline="middle" opacity="0.85">
    FORMATS
  </text>
</svg>
